<?xml version="1.0" standalone="no"?>
<!DOCTYPE svg PUBLIC "-//W3C//DTD SVG 20010904//EN"
 "http://www.w3.org/TR/2001/REC-SVG-20010904/DTD/svg10.dtd">
<svg version="1.0" xmlns="http://www.w3.org/2000/svg"
 width="500.000000pt" height="500.000000pt" viewBox="0 0 500.000000 500.000000"
 preserveAspectRatio="xMidYMid meet">

<g transform="translate(0.000000,500.000000) scale(0.100000,-0.100000)"
fill="#000000" stroke="none">
<path d="M2235 4989 c-689 -66 -1310 -491 -1620 -1109 -144 -287 -219 -600
-213 -886 l3 -129 30 0 30 0 2 75 c15 480 140 852 407 1209 175 235 456 463
724 588 280 130 542 183 900 183 282 0 446 -23 667 -91 513 -159 965 -563
1186 -1059 107 -240 154 -441 172 -734 10 -154 15 -191 28 -199 9 -6 24 -7 33
-4 14 5 16 25 16 134 0 225 -33 431 -102 638 -256 769 -938 1309 -1748 1384
-132 13 -384 12 -515 0z"/>
<path d="M2310 4549 c-607 -70 -1130 -460 -1370 -1023 -71 -166 -130 -420
-130 -557 l0 -59 -116 0 c-120 0 -154 -8 -154 -38 0 -37 20 -42 157 -42 77 0
133 -4 133 -9 0 -6 -11 -45 -25 -88 -34 -109 -63 -135 -196 -177 l-104 -33
104 -32 c132 -41 157 -64 194 -176 15 -44 27 -83 27 -87 0 -4 -61 -9 -136 -10
-118 -3 -138 -5 -148 -21 -8 -12 -8 -22 0 -35 10 -14 30 -17 138 -20 l126 -3
0 -45 c0 -150 66 -426 143 -599 245 -553 752 -924 1362 -996 134 -16 372 -6
506 20 473 94 883 381 1134 796 127 210 218 494 232 725 l6 99 125 3 c106 3
127 6 136 21 8 12 8 22 0 35 -10 15 -30 17 -148 20 -75 1 -136 4 -136 5 0 14
41 141 54 164 24 48 61 71 170 105 l101 31 -103 33 c-105 33 -142 56 -168 107
-14 26 -54 144 -54 159 0 4 64 9 143 10 l142 3 3 24 c6 42 -20 51 -150 51
l-118 0 0 43 c0 23 -7 88 -15 144 -79 560 -421 1035 -925 1288 -276 139 -627
200 -940 164z m416 -80 c508 -70 968 -398 1208 -859 91 -176 158 -399 171
-572 3 -40 8 -85 10 -100 l5 -28 -110 0 c-119 0 -160 -10 -160 -38 0 -37 20
-42 157 -42 100 0 133 -3 133 -12 0 -7 -11 -47 -25 -89 -36 -108 -63 -131
-194 -173 l-106 -33 75 -22 c154 -44 193 -78 230 -201 11 -37 20 -70 20 -74 0
-3 -57 -6 -126 -6 -129 0 -164 -8 -164 -38 0 -36 20 -42 147 -42 l124 0 -7
-67 c-10 -119 -35 -255 -65 -355 -178 -600 -702 -1049 -1329 -1139 -109 -16
-331 -16 -440 0 -714 103 -1272 656 -1379 1368 -6 39 -11 99 -11 132 l0 60
121 3 c103 3 124 6 133 21 8 12 8 22 0 35 -10 15 -30 17 -148 20 -75 1 -136 4
-136 5 0 14 41 141 54 164 24 48 61 71 170 105 l101 31 -104 33 c-133 42 -160
66 -195 178 -14 44 -26 84 -26 89 0 4 58 7 129 7 71 0 136 3 145 6 22 9 20 51
-3 64 -11 5 -72 10 -136 10 l-117 0 7 68 c26 277 103 518 233 730 26 42 28 43
66 37 50 -7 230 -78 366 -143 122 -58 175 -106 271 -247 135 -196 351 -467
474 -595 71 -74 132 -136 136 -138 3 -1 18 20 33 49 25 44 28 59 24 118 -3 59
-11 82 -66 190 -78 154 -81 200 -19 269 11 12 24 22 29 22 34 0 105 -268 117
-444 7 -95 8 -100 39 -127 32 -29 94 -40 106 -20 3 5 21 113 40 241 l35 232
-20 121 c-11 66 -16 124 -11 129 4 4 57 -3 117 -17 61 -14 121 -25 135 -25 17
0 61 -32 140 -101 136 -120 189 -155 239 -164 49 -8 115 18 143 57 l21 30
-192 186 c-105 101 -190 187 -187 189 2 3 36 0 74 -6 82 -13 154 3 191 43 23
24 55 121 46 136 -2 4 -65 10 -138 13 -111 5 -427 52 -485 72 -20 7 15 53 57
75 73 37 107 101 89 167 -20 76 -28 77 -131 21 -51 -28 -146 -77 -212 -110
-133 -66 -130 -65 -275 -27 -41 11 -116 29 -166 39 -51 10 -104 25 -120 33
-32 17 -343 269 -343 278 -1 10 194 93 284 122 74 23 199 51 270 60 68 9 359
6 431 -4z m-881 -369 c174 -145 219 -170 340 -195 44 -9 123 -27 175 -41 153
-39 178 -36 343 47 78 39 157 80 175 91 18 11 35 18 38 16 10 -11 -38 -57 -74
-71 -21 -9 -43 -26 -49 -40 -6 -14 -32 -42 -57 -63 -49 -41 -55 -54 -31 -74
19 -16 473 -99 550 -101 33 -1 73 -4 89 -8 27 -6 28 -7 11 -21 -15 -13 -51
-14 -218 -12 l-199 4 -186 70 -186 70 -18 -22 c-12 -15 -15 -27 -9 -37 4 -9
134 -63 288 -122 l280 -106 157 -149 c86 -82 156 -153 156 -157 0 -15 -44 -10
-77 9 -18 9 -90 67 -161 129 l-129 111 -78 12 c-43 7 -111 20 -151 31 -40 10
-79 16 -88 13 -9 -3 -19 3 -26 15 -13 25 -42 27 -60 6 -10 -12 -7 -48 14 -184
l27 -170 -28 -193 -28 -193 -6 75 c-8 96 -62 347 -87 403 -27 60 -79 117 -107
117 -14 0 -44 -20 -78 -52 -100 -95 -101 -173 -8 -355 33 -65 63 -138 67 -163
l6 -45 -81 80 c-86 84 -327 387 -450 565 -105 152 -167 211 -281 269 -100 51
-295 131 -368 150 -52 14 -52 15 52 133 117 134 354 320 380 299 6 -5 83 -68
171 -141z m-955 -1621 l-45 -45 -45 45 -45 45 45 45 45 46 45 -45 45 -45 -45
-46z m3311 1 l-45 -45 -46 45 -47 45 28 20 c15 11 35 32 44 47 l15 27 48 -47
48 -47 -45 -45z"/>
<path d="M2690 2485 c-25 -8 -65 -31 -88 -51 -34 -28 -48 -35 -68 -30 -36 9
-90 -10 -114 -41 -29 -38 -27 -103 5 -141 l25 -30 -139 -4 c-152 -3 -168 -9
-215 -72 -22 -28 -28 -93 -13 -133 8 -21 6 -23 -31 -23 -82 0 -153 -91 -138
-174 8 -43 58 -104 92 -112 13 -3 24 -7 24 -9 0 -1 27 -139 60 -305 67 -345
74 -361 165 -405 52 -26 55 -26 251 -23 317 5 311 -2 395 425 44 220 64 301
76 308 45 28 84 71 94 105 29 96 -38 190 -135 190 -34 0 -35 1 -26 26 26 68
-6 151 -70 184 -33 17 -59 20 -162 20 -88 1 -118 3 -105 11 39 23 59 98 36
141 -25 46 76 107 179 108 49 0 62 3 62 15 0 34 -82 44 -160 20z m130 -395
c24 -24 26 -67 4 -98 -15 -22 -16 -22 -325 -22 -296 0 -310 1 -329 20 -11 11
-20 33 -20 50 0 17 9 39 20 50 19 19 33 20 325 20 292 0 306 -1 325 -20z m161
-229 c25 -31 24 -69 -3 -98 l-21 -23 -461 0 c-458 0 -460 0 -483 22 -30 28
-30 72 0 101 l22 22 464 -1 464 0 18 -23z m-719 -506 c26 -165 47 -310 48
-323 0 -22 -1 -22 -30 -7 -16 8 -37 29 -46 47 -12 22 -124 552 -124 585 0 2
24 3 52 1 l53 -3 47 -300z m433 273 c-8 -46 -95 -608 -95 -613 0 -3 -47 -5
-105 -5 -60 0 -105 4 -105 10 0 9 -85 560 -94 613 l-5 27 205 0 205 0 -6 -32z
m185 24 c0 -38 -113 -570 -125 -588 -20 -30 -75 -61 -75 -41 0 15 88 581 95
615 5 19 12 22 55 22 28 0 50 -3 50 -8z"/>
<path d="M412 2208 c-15 -15 -16 -260 -1 -396 49 -454 257 -888 577 -1209 455
-454 1059 -657 1762 -592 864 80 1579 690 1791 1528 41 159 59 316 59 500 0
132 -3 161 -16 172 -11 9 -20 10 -32 2 -14 -8 -18 -37 -24 -184 -14 -350 -76
-610 -211 -873 -298 -583 -855 -976 -1507 -1062 -161 -21 -568 -15 -703 10
-619 116 -1118 477 -1406 1017 -144 270 -212 542 -226 904 -4 94 -12 176 -17
183 -13 15 -31 15 -46 0z"/>
</g>
</svg>
